<svg xmlns="http://www.w3.org/2000/svg" viewBox="8.8 7.6 91.4 26.8" width="91.4" height="26.8" role="img" aria-label="K-city">
<path transform="matrix(1,0,0,-1,11.5729,18.592)" d="M0 0C-1.668 1.052-2.776 2.91-2.776 5.028-2.776 8.309-.117 10.968 3.163 10.968 5.281 10.968 7.14 9.86 8.191 8.191 4.123 7.271 .92 4.068 0 0" fill="#1a98c3" fill-rule="evenodd"/>
<path transform="matrix(1,0,0,-1,23.669,28.4362)" d="M0 0C0 3.28 2.659 5.94 5.94 5.94 6.319 5.94 6.691 5.904 7.05 5.836 6.396 2.317 3.622-.456 .104-1.111 .035-.751 0-.38 0 0" fill="#1a98c3" fill-rule="evenodd"/>
<path transform="matrix(1,0,0,-1,32.7719,23.4081)" d="M0 0C1.668-1.052 2.776-2.911 2.776-5.028 2.776-8.308 .117-10.968-3.163-10.968-5.281-10.968-7.14-9.86-8.191-8.191-4.123-7.271-.92-4.068 0 0" fill="#1a98c3" fill-rule="evenodd"/>
<path transform="matrix(1,0,0,-1,8.7968,28.4362)" d="M0 0C0 2.118 1.108 3.976 2.776 5.028 3.697 .96 6.899-2.243 10.968-3.163 9.916-4.832 8.057-5.94 5.94-5.94 2.659-5.94 0-3.28 0 0" fill="#1a98c3" fill-rule="evenodd"/>
<path transform="matrix(1,0,0,-1,13.6255,22.6003)" d="M0 0C.36 .068 .731 .104 1.111 .104 4.391 .104 7.05-2.555 7.05-5.836 7.05-6.216 7.015-6.587 6.947-6.947 3.428-6.292 .655-3.518 0 0" fill="#1a98c3" fill-rule="evenodd"/>
<path transform="matrix(1,0,0,-1,24.5804,10.400499)" d="M0 0C1.052 1.668 2.91 2.776 5.028 2.776 8.309 2.776 10.968 .117 10.968-3.163 10.968-5.281 9.86-7.14 8.191-8.191 7.271-4.123 4.068-.92 0 0" fill="#1a98c3" fill-rule="evenodd"/>
<path transform="matrix(1,0,0,-1,30.7192,19.3999)" d="M0 0C-.36-.068-.731-.104-1.111-.104-2.767-.104-4.265 .574-5.342 1.668-6.169 2.486-7.291 2.976-8.547 2.976-9.799 2.976-10.943 2.473-11.762 1.658-12.838 .57-14.332-.104-15.983-.104-16.363-.104-16.734-.068-17.094 0-16.439 3.518-13.665 6.292-10.147 6.947-9.636 7.043-9.093 7.094-8.547 7.094-8 7.094-7.466 7.043-6.947 6.946-3.428 6.292-.655 3.518 0 0" fill="#1a98c3" fill-rule="evenodd"/>
<path transform="matrix(1,0,0,-1,70.0506,19.6898)" d="M0 0C.303 .303 .54 .635 .709 .995H3.499C3.245-.079 2.7-1.033 1.867-1.867 .663-3.07-.79-3.672-2.492-3.672-4.194-3.672-5.648-3.07-6.851-1.867-8.055-.664-8.656 .789-8.656 2.492-8.656 4.194-8.055 5.647-6.851 6.851-5.648 8.054-4.194 8.656-2.492 8.656-.79 8.656 .663 8.054 1.867 6.851 2.706 6.011 3.252 5.05 3.504 3.967H.719C.549 4.335 .31 4.674 0 4.984-.687 5.671-1.518 6.014-2.492 6.014-3.467 6.014-4.297 5.671-4.984 4.984-5.671 4.297-6.014 3.466-6.014 2.492-6.014 1.517-5.671 .687-4.984 0-4.297-.687-3.467-1.03-2.492-1.03-1.518-1.03-.687-.687 0 0M8.096-3.672H5.4539997V7.7749998H8.096ZM8.096 8.656H5.4539997V11.298H8.096ZM9.878 11.298H12.52V8.656H16.042V6.014H12.52V2.492C12.52 1.517 12.864 .687 13.55 0 14.237-.687 15.068-1.03 16.042-1.03V-3.672C14.34-3.672 12.887-3.07 11.683-1.867 10.48-.664 9.878 .789 9.878 2.492ZM17.825 2.492V8.656H20.466V2.492C20.466 1.517 20.81 .687 21.497 0 22.184-.687 23.014-1.03 23.989-1.03 24.963-1.03 25.794-.687 26.481 0 27.167 .687 27.511 1.517 27.511 2.492V8.656H30.153V-1.03C30.153-2.733 29.551-4.186 28.348-5.389 27.144-6.592 25.691-7.194 23.989-7.194V-4.553C24.963-4.553 25.794-4.209 26.481-3.522 26.668-3.335 26.833-3.135 26.974-2.924 26.081-3.423 25.086-3.672 23.989-3.672 22.286-3.672 20.833-3.07 19.63-1.867 18.426-.664 17.825 .789 17.825 2.492M-13.687 3.92H-10.834001V1.0670002H-13.687ZM-25.5 3.813H-21.977C-21.003 3.813-20.172 4.156-19.485 4.843-18.799 5.53-18.455 6.361-18.455 7.335V8.656H-15.813V7.335C-15.813 5.633-16.415 4.18-17.619 2.976-17.795 2.8-17.974 2.639-18.156 2.492-17.974 2.345-17.795 2.184-17.619 2.008-16.415 .804-15.814-.649-15.813-2.351V-3.672H-18.455V-2.351C-18.455-1.377-18.799-.546-19.485 .141-20.172 .828-21.003 1.171-21.977 1.171H-25.5V-3.672H-28.141V11.298H-25.5Z" fill="#4e4b4a" fill-rule="evenodd"/>
<path transform="matrix(1,0,0,-1,42.369,29.0054)" d="M0 0 .572-1.697C.637-1.892 .702-2.133 .747-2.314H.767C.819-2.133 .877-1.898 .936-1.69L1.43 0H2.288L1.495-2.158C1.06-3.342 .767-3.868 .39-4.193 .078-4.473-.247-4.576-.448-4.603L-.631-3.927C-.494-3.895-.325-3.822-.163-3.705-.013-3.608 .162-3.42 .272-3.205 .306-3.146 .325-3.101 .325-3.063 .325-3.029 .318-2.984 .279-2.906L-.878 0Z" fill="#1a98c3"/>
<path transform="matrix(1,0,0,-1,45.658,30.5923)" d="M0 0C0-.61 .3-1.072 .787-1.072 1.242-1.072 1.561-.624 1.561 .014 1.561 .508 1.339 1.073 .793 1.073 .228 1.073 0 .527 0 0M2.386 .033C2.386-1.131 1.566-1.65 .761-1.65-.136-1.65-.825-1.033-.825-.019-.825 1.021-.143 1.658 .812 1.658 1.755 1.658 2.386 .995 2.386 .033" fill="#1a98c3"/>
<path transform="matrix(1,0,0,-1,51.534,31.2222)" d="M0 0C0-.377 .014-.689 .026-.949H-.676L-.715-.468H-.728C-.864-.695-1.176-1.021-1.741-1.021-2.32-1.021-2.847-.676-2.847 .357V2.217H-2.047V.494C-2.047-.032-1.878-.371-1.456-.371-1.137-.371-.929-.144-.845 .059-.818 .13-.799 .214-.799 .306V2.217H0Z" fill="#1a98c3"/>
<path transform="matrix(1,0,0,-1,52.3983,30.0259)" d="M0 0C0 .429-.006 .734-.025 1.021H.67L.696 .416H.722C.878 .864 1.248 1.092 1.586 1.092 1.664 1.092 1.71 1.085 1.774 1.072V.318C1.71 .331 1.639 .344 1.541 .344 1.157 .344 .897 .097 .826-.261 .812-.332 .8-.416 .8-.508V-2.146H0Z" fill="#1a98c3"/>
<path transform="matrix(1,0,0,-1,58.3846,32.0738)" d="M0 0C-.169-.078-.5-.163-.896-.163-1.885-.163-2.528 .468-2.528 1.449-2.528 2.398-1.878 3.14-.767 3.14-.475 3.14-.175 3.074 .007 2.99L-.137 2.392C-.267 2.45-.455 2.516-.741 2.516-1.352 2.516-1.716 2.067-1.709 1.488-1.709 .838-1.287 .468-.741 .468-.461 .468-.267 .526-.11 .592Z" fill="#1a98c3"/>
<path transform="matrix(1,0,0,-1,0,42)" d="M58.975 12.995H59.781999V9.829H58.975ZM59.827 13.878C59.827 13.638 59.652 13.45 59.372 13.45 59.105 13.45 58.93 13.638 58.93 13.878 58.93 14.125 59.112 14.314 59.379 14.314 59.652 14.314 59.821 14.125 59.827 13.878" fill="#1a98c3"/>
<path transform="matrix(1,0,0,-1,61.5565,28.1021)" d="M0 0V-.903H.761V-1.502H0V-2.899C0-3.283 .104-3.484 .409-3.484 .546-3.484 .649-3.465 .722-3.445L.734-4.057C.617-4.102 .409-4.135 .156-4.135-.137-4.135-.384-4.037-.533-3.874-.702-3.692-.78-3.406-.78-2.99V-1.502H-1.235V-.903H-.78V-.188Z" fill="#1a98c3"/>
<path transform="matrix(1,0,0,-1,63.4676,29.0054)" d="M0 0 .572-1.697C.637-1.892 .702-2.133 .747-2.314H.767C.819-2.133 .877-1.898 .936-1.69L1.43 0H2.288L1.495-2.158C1.06-3.342 .767-3.868 .39-4.193 .078-4.473-.247-4.576-.448-4.603L-.631-3.927C-.494-3.895-.325-3.822-.163-3.705-.013-3.608 .162-3.42 .272-3.205 .306-3.146 .325-3.101 .325-3.063 .325-3.029 .318-2.984 .279-2.906L-.878 0Z" fill="#1a98c3"/>
<path transform="matrix(1,0,0,-1,65.5535,32.9576)" d="M0 0C.176 .493 .352 1.176 .436 1.716L1.274 1.78C1.092 1.17 .8 .468 .546 .052Z" fill="#1a98c3"/>
<path transform="matrix(1,0,0,-1,69.3113,29.0054)" d="M0 0 .572-1.697C.637-1.892 .702-2.133 .747-2.314H.767C.819-2.133 .877-1.898 .936-1.69L1.43 0H2.288L1.495-2.158C1.06-3.342 .767-3.868 .39-4.193 .078-4.473-.247-4.576-.448-4.603L-.631-3.927C-.494-3.895-.325-3.822-.163-3.705-.013-3.608 .162-3.42 .272-3.205 .306-3.146 .325-3.101 .325-3.063 .325-3.029 .318-2.984 .279-2.906L-.878 0Z" fill="#1a98c3"/>
<path transform="matrix(1,0,0,-1,72.5994,30.5923)" d="M0 0C0-.61 .3-1.072 .787-1.072 1.242-1.072 1.561-.624 1.561 .014 1.561 .508 1.339 1.073 .793 1.073 .228 1.073 0 .527 0 0M2.386 .033C2.386-1.131 1.566-1.65 .761-1.65-.136-1.65-.825-1.033-.825-.019-.825 1.021-.143 1.658 .812 1.658 1.755 1.658 2.386 .995 2.386 .033" fill="#1a98c3"/>
<path transform="matrix(1,0,0,-1,78.4754,31.2222)" d="M0 0C0-.377 .014-.689 .026-.949H-.676L-.715-.468H-.728C-.864-.695-1.176-1.021-1.741-1.021-2.32-1.021-2.847-.676-2.847 .357V2.217H-2.047V.494C-2.047-.032-1.878-.371-1.456-.371-1.137-.371-.929-.144-.845 .059-.818 .13-.799 .214-.799 .306V2.217H0Z" fill="#1a98c3"/>
<path transform="matrix(1,0,0,-1,79.3397,30.0259)" d="M0 0C0 .429-.006 .734-.025 1.021H.67L.696 .416H.722C.878 .864 1.248 1.092 1.586 1.092 1.664 1.092 1.71 1.085 1.774 1.072V.318C1.71 .331 1.639 .344 1.541 .344 1.157 .344 .897 .097 .826-.261 .812-.332 .8-.416 .8-.508V-2.146H0Z" fill="#1a98c3"/>
<path transform="matrix(1,0,0,-1,83.0906,32.171403)" d="M0 0V2.567H-.43V3.166H0V3.302C0 3.712 .11 4.121 .383 4.381 .617 4.603 .936 4.687 1.209 4.687 1.423 4.687 1.592 4.654 1.722 4.608L1.664 3.991C1.579 4.023 1.469 4.05 1.325 4.05 .929 4.05 .793 3.718 .793 3.328V3.166H1.488V2.567H.799V0Z" fill="#1a98c3"/>
<path transform="matrix(1,0,0,-1,87.907,31.2222)" d="M0 0C0-.377 .014-.689 .026-.949H-.676L-.715-.468H-.728C-.864-.695-1.176-1.021-1.741-1.021-2.32-1.021-2.847-.676-2.847 .357V2.217H-2.047V.494C-2.047-.032-1.878-.371-1.456-.371-1.137-.371-.929-.144-.845 .059-.818 .13-.799 .214-.799 .306V2.217H0Z" fill="#1a98c3"/>
<path transform="matrix(1,0,0,-1,89.6883,28.1021)" d="M0 0V-.903H.761V-1.502H0V-2.899C0-3.283 .104-3.484 .409-3.484 .546-3.484 .649-3.465 .722-3.445L.734-4.057C.617-4.102 .409-4.135 .156-4.135-.137-4.135-.384-4.037-.533-3.874-.702-3.692-.78-3.406-.78-2.99V-1.502H-1.235V-.903H-.78V-.188Z" fill="#1a98c3"/>
<path transform="matrix(1,0,0,-1,93.8865,31.2222)" d="M0 0C0-.377 .014-.689 .026-.949H-.676L-.715-.468H-.728C-.864-.695-1.176-1.021-1.741-1.021-2.32-1.021-2.847-.676-2.847 .357V2.217H-2.047V.494C-2.047-.032-1.878-.371-1.456-.371-1.137-.371-.929-.144-.845 .059-.818 .13-.799 .214-.799 .306V2.217H0Z" fill="#1a98c3"/>
<path transform="matrix(1,0,0,-1,94.7508,30.0259)" d="M0 0C0 .429-.006 .734-.025 1.021H.67L.696 .416H.722C.878 .864 1.248 1.092 1.586 1.092 1.664 1.092 1.71 1.085 1.774 1.072V.318C1.71 .331 1.639 .344 1.541 .344 1.157 .344 .897 .097 .826-.261 .812-.332 .8-.416 .8-.508V-2.146H0Z" fill="#1a98c3"/>
<path transform="matrix(1,0,0,-1,98.9637,30.253399)" d="M0 0C.006 .292-.124 .773-.656 .773-1.15 .773-1.358 .324-1.392 0ZM-1.392-.56C-1.372-1.132-.923-1.379-.416-1.379-.046-1.379 .221-1.326 .461-1.235L.578-1.788C.306-1.898-.071-1.983-.526-1.983-1.554-1.983-2.158-1.353-2.158-.384-2.158 .493-1.625 1.319-.611 1.319 .416 1.319 .754 .475 .754-.222 .754-.371 .741-.488 .728-.56Z" fill="#1a98c3"/>
</svg>
